<svg width="165" height="20" viewBox="0 0 165 20" fill="none" xmlns="http://www.w3.org/2000/svg">
<path d="M4.44617 15.0683H0V0.629639H4.5103C9.61912 0.629639 12.8041 3.29491 12.8041 7.82796C12.8041 12.1092 9.6405 15.0683 4.44617 15.0683ZM4.57443 3.44181H3.03537V12.2351H4.53167C7.58842 12.2351 9.68325 10.6611 9.68325 7.80697C9.68325 4.97381 7.46016 3.44181 4.57443 3.44181Z" fill="white" fill-opacity="0.5"/>
<path d="M37.942 0C38.968 0 39.7803 0.797482 39.7803 1.78384C39.7803 2.7702 38.968 3.56768 37.942 3.56768C36.9587 3.56768 36.1464 2.7702 36.1464 1.78384C36.125 0.797482 36.9587 0 37.942 0ZM36.4884 15.0682H39.4169V5.2256H36.4884V15.0682Z" fill="white" fill-opacity="0.5"/>
<path d="M61.4127 9.61177C61.4127 8.52048 60.8783 7.70201 59.6812 7.70201C58.4414 7.70201 57.8643 8.60443 57.8643 9.61177V15.0682H54.9358V6.17001L57.8429 4.51208V6.50579H57.8643C58.6338 5.18365 60.3225 5.03674 60.7073 5.03674C63.251 5.03674 64.3412 6.92552 64.3412 8.96119V15.0892H61.4127V9.61177Z" fill="white" fill-opacity="0.5"/>
<path d="M31.2944 9.02413L29.9049 8.75131C29.3919 8.64638 29.114 8.39454 29.114 8.03777C29.114 7.59706 29.5629 7.2193 30.2256 7.2193C31.0592 7.2193 31.5509 7.70199 31.6791 8.37355L33.9877 7.0724C33.5175 6.06506 32.3418 4.99475 30.2042 4.99475C28.0025 4.99475 26.3779 6.44281 26.3779 8.22665C26.3779 9.63273 27.3398 10.6611 29.285 11.1018L30.5462 11.3746C31.3157 11.5425 31.5295 11.8993 31.5295 12.2141C31.5295 12.5708 31.1875 13.0535 30.3538 13.0535C29.3919 13.0535 28.7934 12.3819 28.7293 11.7314L26.3779 13.0535C26.8482 14.0818 28.0666 15.2781 30.3966 15.2781C33.0472 15.2781 34.3725 13.6411 34.3725 12.0252C34.3297 10.5771 33.2823 9.42287 31.2944 9.02413Z" fill="white" fill-opacity="0.5"/>
<path d="M49.2926 5.22564V6.40088C48.2666 5.20465 46.8985 5.07874 46.2786 5.07874C43.3715 5.07874 41.5332 7.5971 41.5332 10.0945C41.5332 12.8647 43.4784 15.0682 46.3641 15.0682C47.0909 15.0682 48.3735 14.9004 49.2499 13.7461H49.2926V14.8794C49.2926 16.7052 48.0101 17.4817 46.5993 17.4817C45.2526 17.4817 44.4831 16.6422 44.2907 15.7398L41.7897 17.1459C42.431 18.6779 44.1624 20 46.7275 20C49.9125 20 52.2211 18.1742 52.2211 15.6978V7.80696V5.8972V5.22564H49.2926ZM46.9413 12.5709C45.5946 12.5709 44.5044 11.5635 44.5044 10.0945C44.5044 8.64642 45.5946 7.61808 46.9413 7.61808C48.3093 7.61808 49.3781 8.62543 49.3781 10.0735C49.3781 11.5635 48.3093 12.5709 46.9413 12.5709Z" fill="white" fill-opacity="0.5"/>
<path d="M21.9531 11.6055C21.6111 12.4029 20.692 12.9066 19.8369 12.9066C18.6185 12.9066 17.5497 12.1931 17.3787 10.9759H24.6679C24.7106 10.6401 24.7106 10.2833 24.7106 9.94754C24.7106 7.03044 22.7013 5.01575 19.7087 5.01575C16.8229 5.01575 14.4075 7.30326 14.4075 10.1574C14.4075 13.2004 16.8657 15.2991 19.9011 15.2991C21.718 15.2991 23.4067 14.4386 24.1976 12.8437L21.9531 11.6055ZM19.6018 7.32425C21.0767 7.32425 21.6966 8.33159 21.7394 9.04513H17.4428C17.5497 8.39455 18.2979 7.32425 19.6018 7.32425Z" fill="white" fill-opacity="0.5"/>
<path d="M140.204 10.703C140.204 11.7943 140.717 12.5918 141.936 12.5918C143.154 12.5918 143.731 11.7104 143.731 10.703V5.22559H146.66V15.0682H143.774V13.851H143.752C142.748 15.299 141.23 15.278 140.952 15.278C138.451 15.278 137.276 13.4312 137.276 11.4166V5.22559H140.204V10.703Z" fill="white" fill-opacity="0.5"/>
<path d="M124.771 2.1615L121.885 3.77745V5.22551H119.897V7.7019H121.842V11.5844C121.842 13.2003 122.355 15.194 125.476 15.194C125.797 15.194 126.545 15.173 127.208 14.9632V12.6337C126.695 12.6967 126.609 12.6967 126.182 12.6967C125.198 12.6967 124.771 12.193 124.771 11.4375V7.72289H127.251V5.22551H124.771V2.1615Z" fill="white" fill-opacity="0.5"/>
<path d="M104.293 11.5843C103.951 12.3818 103.032 12.8855 102.177 12.8855C100.958 12.8855 99.8893 12.172 99.7183 10.9548H107.007C107.05 10.619 107.05 10.2622 107.05 9.92642C107.05 7.00932 105.041 4.99463 102.048 4.99463C99.1625 4.99463 96.7471 7.28214 96.7471 10.1363C96.7471 13.1793 99.2053 15.2779 102.241 15.2779C104.058 15.2779 105.746 14.4175 106.537 12.8225L104.293 11.5843ZM101.963 7.32412C103.438 7.32412 104.058 8.33146 104.1 9.045H99.7824C99.8893 8.39442 100.637 7.32412 101.963 7.32412Z" fill="white" fill-opacity="0.5"/>
<path d="M113.933 12.6337C112.501 12.6337 111.518 11.5844 111.518 10.1363C111.518 8.58331 112.608 7.65991 113.912 7.65991C115.173 7.65991 115.943 8.41542 116.156 9.17093L118.636 7.78583C117.888 5.93903 115.857 5.03662 113.955 5.03662C110.877 5.03662 108.482 7.30315 108.482 10.1993C108.482 13.1373 110.727 15.3199 113.891 15.3199C115.857 15.3199 117.845 14.3965 118.679 12.5287L116.22 11.1436C115.964 11.8572 115.216 12.6337 113.933 12.6337Z" fill="white" fill-opacity="0.5"/>
<path d="M90.484 5.03661C89.8 5.03661 88.3892 5.18352 87.4059 6.4427H87.3632V5.22549V4.49097L84.4561 6.14889V7.30314V15.0471V19.9369H87.3845V13.9768H87.4273C88.3678 15.1101 89.6717 15.257 90.3985 15.257C93.327 15.257 95.2508 12.6756 95.2508 10.1363C95.2508 7.63892 93.4339 5.03661 90.484 5.03661ZM89.8 12.6547C88.432 12.6547 87.3204 11.6473 87.3204 10.1363C87.3204 8.64627 88.4106 7.63892 89.7786 7.63892C91.1467 7.63892 92.2582 8.64627 92.2582 10.1363C92.2796 11.6263 91.1681 12.6547 89.8 12.6547Z" fill="white" fill-opacity="0.5"/>
<path d="M161.473 4.99469C160.02 4.99469 159.079 5.51935 158.138 6.56866C157.561 5.49836 156.407 4.99469 155.21 4.99469C154.077 4.99469 152.859 5.51935 152.281 6.50571H152.26V4.59595L149.396 6.19091V15.0472H152.303V9.5907C152.303 8.45744 152.901 7.68094 154.098 7.68094C155.295 7.68094 155.723 8.5204 155.723 9.5907V15.0472H158.63V9.56971C158.63 8.45744 159.25 7.70193 160.426 7.70193C161.623 7.70193 162.05 8.49941 162.05 9.56971V15.0681H164.979V8.91914C165 6.6736 163.931 4.99469 161.473 4.99469Z" fill="white" fill-opacity="0.5"/>
<path d="M134.839 5.12064C133.813 5.12064 132.787 5.54037 132.252 6.65264H132.231V4.93176L129.452 6.46377V7.45012V15.0472H132.317V10.766C132.317 8.94016 133.3 7.97478 134.711 7.97478C134.839 7.97478 135.266 7.97478 135.651 8.03774V5.22557C135.416 5.16261 135.053 5.12064 134.839 5.12064Z" fill="white" fill-opacity="0.5"/>
<path d="M78.1074 6.54768L76.0553 6.16993C74.9865 5.98105 74.5376 5.37245 74.5376 4.6799C74.5376 3.84044 75.4354 3.08493 76.6752 3.08493C78.1715 3.08493 79.0052 3.9034 79.2403 5.03667L81.8482 3.56762C81.3138 1.93069 79.6678 0.398682 76.6966 0.398682C73.875 0.398682 71.5023 2.32943 71.5023 4.88976C71.5023 7.09333 73.0413 8.58336 75.414 9.04506L77.4875 9.4438C78.5135 9.63268 79.1548 10.2413 79.1548 10.9548C79.1548 11.8362 78.3425 12.5918 76.9531 12.5918C75.3499 12.5918 74.0674 11.7313 73.8109 10.1783L71.1816 11.6893C71.887 13.9139 73.7254 15.299 76.8676 15.299C80.3519 15.299 82.2757 13.0325 82.2757 10.8079C82.2757 8.75125 80.8221 7.03037 78.1074 6.54768Z" fill="white" fill-opacity="0.5"/>
</svg>
